<svg xmlns="http://www.w3.org/2000/svg" viewBox="0 0 920 280" role="img" aria-labelledby="title desc">
  <title id="title">Flows.jl logo</title>
  <desc id="desc">Julia-colored particles following the two swirling lobes of a Lorenz attractor with the Flows.jl wordmark.</desc>
  <defs>
    <linearGradient id="panel" x1="0" x2="1" y1="0" y2="1">
      <stop offset="0" stop-color="#ffffff"/>
      <stop offset="1" stop-color="#f6f8fb"/>
    </linearGradient>
    <linearGradient id="left-trail" x1="0" x2="1" y1="0" y2="1">
      <stop offset="0" stop-color="#4063d8"/>
      <stop offset="0.5" stop-color="#9558b2"/>
      <stop offset="1" stop-color="#cb3c33"/>
    </linearGradient>
    <linearGradient id="right-trail" x1="0" x2="1" y1="1" y2="0">
      <stop offset="0" stop-color="#389826"/>
      <stop offset="0.5" stop-color="#4063d8"/>
      <stop offset="1" stop-color="#9558b2"/>
    </linearGradient>
    <filter id="shadow" x="-10%" y="-20%" width="120%" height="140%">
      <feDropShadow dx="0" dy="8" stdDeviation="10" flood-color="#172033" flood-opacity="0.14"/>
    </filter>
  </defs>

  <rect x="24" y="24" width="872" height="232" rx="28" fill="url(#panel)" filter="url(#shadow)"/>

  <g transform="translate(58 42)">
    <path d="M132 99
             C113 67, 85 43, 56 55
             C22 69, 20 113, 52 140
             C83 166, 119 145, 131 111
             C142 80, 116 55, 85 59
             C50 64, 41 97, 58 121
             C76 145, 110 137, 126 111
             C142 85, 119 70, 98 74
             C75 78, 66 101, 79 117
             C94 134, 119 124, 132 101
             C147 71, 181 48, 211 58
             C246 69, 257 110, 232 139
             C207 170, 169 158, 143 124
             C123 95, 139 68, 170 61
             C202 55, 228 81, 222 111
             C217 140, 182 149, 157 130
             C134 112, 136 88, 156 78
             C178 66, 204 78, 207 99
             C211 121, 187 136, 165 128
             C148 121, 139 108, 132 99"
          fill="none" stroke="#c9ced8" stroke-width="3.5" stroke-linecap="round" stroke-linejoin="round"/>

    <path d="M132 101
             C142 80, 116 55, 85 59
             C50 64, 41 97, 58 121
             C76 145, 110 137, 126 111
             C142 85, 119 70, 98 74"
          fill="none" stroke="url(#left-trail)" stroke-width="4" stroke-linecap="round" opacity="0.72"/>
    <path d="M132 101
             C147 71, 181 48, 211 58
             C246 69, 257 110, 232 139
             C207 170, 169 158, 143 124
             C123 95, 139 68, 170 61"
          fill="none" stroke="url(#right-trail)" stroke-width="4" stroke-linecap="round" opacity="0.72"/>

    <g stroke="#ffffff" stroke-width="2.5">
      <circle cx="51" cy="58" r="6" fill="#389826"/>
      <circle cx="33" cy="88" r="4.5" fill="#9558b2"/>
      <circle cx="43" cy="123" r="5.5" fill="#4063d8"/>
      <circle cx="69" cy="146" r="7" fill="#cb3c33"/>
      <circle cx="104" cy="135" r="5.5" fill="#389826"/>
      <circle cx="119" cy="110" r="7" fill="#9558b2"/>
      <circle cx="102" cy="72" r="4.5" fill="#cb3c33"/>
      <circle cx="72" cy="66" r="4" fill="#4063d8"/>

      <circle cx="132" cy="101" r="7.5" fill="#cb3c33"/>

      <circle cx="151" cy="78" r="5.5" fill="#4063d8"/>
      <circle cx="181" cy="59" r="7" fill="#cb3c33"/>
      <circle cx="215" cy="64" r="5.5" fill="#389826"/>
      <circle cx="239" cy="93" r="4.5" fill="#9558b2"/>
      <circle cx="230" cy="130" r="6" fill="#4063d8"/>
      <circle cx="198" cy="153" r="7" fill="#cb3c33"/>
      <circle cx="165" cy="139" r="5" fill="#389826"/>
      <circle cx="145" cy="116" r="6.5" fill="#9558b2"/>
    </g>
  </g>

  <g transform="translate(360 76)">
    <text x="0" y="58" font-family="Inter, Avenir, Helvetica, Arial, sans-serif" font-size="64" font-weight="800" fill="#242936" letter-spacing="0">Flows.jl</text>
    <text x="3" y="105" font-family="Inter, Avenir, Helvetica, Arial, sans-serif" font-size="24" font-weight="600" fill="#5c6475" letter-spacing="0">flow maps for dynamical systems</text>
  </g>
</svg>
